# xmcd
#
# Track frame offsets:
#	150
#	17302
#	35525
#	50227
#	64275
#	83457
#	94707
#	112485
#	130195
#	146007
#	165687
#
# Disc length: 2512 seconds
# Revision: 4
# Processed by: cddbd v1.5.2PL0 Copyright (c) Steve Scherf et al.
# Submitted via: dBpowerAMP V12.0
#
DISCID=9609ce0b
DTITLE=T. Graham Brown - Wine Into Water
DYEAR=1998
DGENRE=Country
TTITLE0=Wine Into Water
TTITLE1=Never In A Million Tears
TTITLE2=Happy Ever After
TTITLE3=Keep Me From Blowing Away
TTITLE4=Good Days Bad Days
TTITLE5=Hide And Seek
TTITLE6=Memphis Women and Chicken
TTITLE7=Accept My Love
TTITLE8=A Better Word For Love
TTITLE9=Livin' On Love
TTITLE10=How Do You Know
EXTD=
EXTT0=
EXTT1=
EXTT2=
EXTT3=
EXTT4=
EXTT5=
EXTT6=
EXTT7=
EXTT8=
EXTT9=
EXTT10=
PLAYORDER=
